<?xml version="1.0" encoding="UTF-8" standalone="no"?>
<svg
   width="31"
   height="46"
   viewBox="0 0 31 46"
   fill="none"
   version="1.1"
   id="svg1"
   sodipodi:docname="logo.svg"
   inkscape:version="1.3.2 (091e20ef0f, 2023-11-25, custom)"
   xmlns:inkscape="http://www.inkscape.org/namespaces/inkscape"
   xmlns:sodipodi="http://sodipodi.sourceforge.net/DTD/sodipodi-0.dtd"
   xmlns="http://www.w3.org/2000/svg"
   xmlns:svg="http://www.w3.org/2000/svg">
  <defs
     id="defs1" />
  <sodipodi:namedview
     id="namedview1"
     pagecolor="#ffffff"
     bordercolor="#666666"
     borderopacity="1.0"
     inkscape:showpageshadow="2"
     inkscape:pageopacity="0.0"
     inkscape:pagecheckerboard="0"
     inkscape:deskcolor="#d1d1d1"
     showgrid="false"
     inkscape:zoom="9.745098"
     inkscape:cx="16.008048"
     inkscape:cy="25.5"
     inkscape:window-width="1358"
     inkscape:window-height="742"
     inkscape:window-x="0"
     inkscape:window-y="0"
     inkscape:window-maximized="1"
     inkscape:current-layer="svg1" />
  <path
     id="Vector"
     fill-rule="evenodd"
     clip-rule="evenodd"
     d="m 23.331375,22.667422 c -0.04328,0.266558 -0.148789,0.520319 -0.308647,0.742235 -0.159859,0.221817 -0.369879,0.406137 -0.614304,0.538869 -0.492341,0.305545 -0.923051,0.458317 -1.358848,0.611089 -0.928137,0.307925 -1.90504,0.61595 -2.938287,0.973179 -1.089591,0.357328 -2.066493,0.714557 -2.938186,0.973278 -1.087099,0.357228 -2.120345,0.665253 -3.102334,1.022482 -0.73876,0.303759 -1.432744,0.699776 -2.063901,1.177735 -0.5870389,0.511092 -1.0993443,1.09619 -1.5229545,1.73942 -0.4358665,0.714557 -0.710199,1.636051 -0.710199,2.710218 0,2.151012 0.5435391,3.786964 1.6332003,4.809447 1.0871082,1.076746 3.1023432,1.586748 6.0891962,1.586748 3.045889,0 5.112383,-0.561785 6.204667,-1.687737 1.084505,-1.12595 1.628004,-2.710218 1.628004,-4.755282 V 22.667422 Z M 15.498704,0 C 20.831578,0 24.746667,0.9732173 27.246465,2.9689379 29.748855,4.9153745 31,7.4186359 31,10.385135 v 25.279034 c 0,1.022483 -0.215405,2.148433 -0.594857,3.375471 -0.384539,1.2319 -1.143443,2.35547 -2.340837,3.375471 -1.140949,1.027443 -2.717695,1.897153 -4.730338,2.562407 C 21.321326,45.642771 18.711233,46 15.501296,46 12.296446,46 9.6812473,45.642771 7.6711577,44.977518 5.6610681,44.312264 4.0817092,43.442554 2.9407797,42.415111 1.8794104,41.4959 1.0753706,40.335228 0.60251428,39.03964 0.21793023,37.815082 0,36.689131 0,35.666649 v -4.040725 c 0,-2.150913 0.59738644,-4.146673 1.7947242,-5.888574 1.1973339,-1.788824 2.8818125,-3.015763 5.0585519,-3.784484 1.0870882,-0.35723 2.3382634,-0.714558 3.7509429,-1.175255 1.415292,-0.463177 2.717795,-0.923974 4.025285,-1.330507 1.307589,-0.411394 2.448539,-0.822886 3.425441,-1.182596 0.589472,-0.226678 1.188219,-0.430539 1.794645,-0.611089 l 0.979495,-0.460697 c 0.384538,-0.204556 0.761397,-0.512481 1.143442,-0.921494 0.379453,-0.406533 0.705054,-0.86723 0.979396,-1.379711 0.2899,-0.55494 0.439187,-1.167913 0.435896,-1.788824 v -1.638432 c 0.004,-0.600474 -0.127148,-1.194697 -0.384637,-1.7419 C 22.787876,9.1063718 22.35198,8.5446165 21.754629,8.0345955 21.157179,7.5221143 20.339337,7.1131214 19.362534,6.8026764 18.383039,6.499622 17.080635,6.3443995 15.608999,6.3443995 c -3.045989,0 -5.058632,0.5666856 -6.14568,1.7394799 -0.9230013,1.0249625 -1.4665504,2.3037356 -1.5742331,3.7352296 0,0.307926 -0.2717695,0.512482 -0.5999433,0.512482 L 0.65635561,12.43506 C 0.49879967,12.435655 0.34734987,12.37653 0.23498314,12.270383 0.12261742,12.164236 0.05843275,12.019698 0.05640555,11.868315 v -1.47832 c 0,-1.4363855 0.27433618,-2.7668625 0.87172262,-4.0455955 C 1.5280805,5.0632064 2.4536448,3.9914302 3.702257,3.0674858 4.9534321,2.1484719 6.5866324,1.3822202 8.5428806,0.869739 10.44785,0.25377641 12.786094,0 15.50379,0 Z"
     fill="#0a3871"
     style="stroke-width:0.994633" />
</svg>
